<?xml version="1.0" encoding="UTF-8"?>
<svg id="Layer_1" data-name="Layer 1" xmlns="http://www.w3.org/2000/svg" viewBox="0 0 513.14 192.85">
  <defs>
    <style>
      .cls-1 {
        fill: #010101;
      }
    </style>
  </defs>
  <g>
    <path class="cls-1" d="M86.64,54.53c0-27.54-13.52-40.31-36.31-40.31S14.02,26.98,14.02,54.53v48.08c0,4.51-3.26,6.76-7.01,6.76s-7.01-2.25-7.01-6.76v-48.08C0,18.22,19.78,1.69,50.33,1.69s50.33,16.53,50.33,52.83v48.08c0,4.51-3.26,6.76-7.01,6.76s-7.01-2.25-7.01-6.76v-48.08Z"/>
    <path class="cls-1" d="M233.87,10.96c0-4.76,3.51-6.76,7.01-6.76s7.01,2,7.01,6.76v48.08c0,36.31-20.28,52.83-50.33,52.83s-50.33-16.53-50.33-52.83V10.96c0-4.76,3.51-6.76,7.01-6.76s7.01,2.25,7.01,6.76v47.83c0,26.04,12.27,40.06,36.31,40.06s36.31-14.02,36.31-40.06V10.96Z"/>
    <path class="cls-1" d="M294.47,60.03c0-37.31,20.28-58.34,55.59-58.34,5.01,0,6.76,3.51,6.76,6.76,0,3.51-1.75,6.76-6.76,6.76-27.04,0-41.57,18.78-41.57,45.32v42.07c0,4.51-3,6.76-7.01,6.76s-7.01-2.25-7.01-6.76v-42.57Z"/>
    <path class="cls-1" d="M435.44,111.87c-33.8,0-57.09-22.54-57.09-55.09S401.64,1.69,435.19,1.69s57.09,22.54,57.09,55.34-23.29,54.84-56.84,54.84ZM435.19,13.96c-24.79,0-42.32,17.53-42.32,43.07s17.53,42.57,42.32,42.57,42.57-17.03,42.57-42.57-17.28-43.07-42.57-43.07Z"/>
  </g>
  <g>
    <path class="cls-1" d="M269.1,171.59h13.54v16s-5.43,5.26-15.39,5.26c-11.58,0-19.3-8.95-19.3-20.25s8-20.25,19.3-20.25c9.74,0,14.21,5.54,14.21,5.54l-2.07,1.96s-3.75-4.64-12.14-4.64c-9.62,0-16.28,7.66-16.28,17.4s6.32,17.4,16.28,17.4c8.39,0,12.53-3.69,12.53-3.69v-11.97h-10.69v-2.74Z"/>
    <path class="cls-1" d="M307.74,153.02h9.46c8.06,0,12.7,4.64,12.7,11.08,0,8.45-7.38,10.63-10.13,10.91l11.19,17.18h-3.52l-10.97-17.01h-5.82v17.01h-2.91v-39.17ZM317.37,172.38c5.87,0,9.51-3.13,9.51-8.28s-3.69-8.28-9.51-8.28h-6.71v16.56h6.71Z"/>
    <path class="cls-1" d="M352.14,172.6c0-11.3,8.22-20.25,19.36-20.25s19.36,8.95,19.36,20.25-8.17,20.25-19.36,20.25-19.36-8.95-19.36-20.25ZM355.16,172.6c0,9.62,6.55,17.4,16.34,17.4s16.34-7.78,16.34-17.4-6.55-17.4-16.34-17.4-16.34,7.78-16.34,17.4Z"/>
    <path class="cls-1" d="M440.01,153.02h2.91v24.45c0,9.12-4.98,15.39-13.93,15.39s-13.93-6.27-13.93-15.39v-24.45h2.91v24.17c0,7.61,3.24,12.81,11.02,12.81s11.02-5.2,11.02-12.81v-24.17Z"/>
    <path class="cls-1" d="M469.58,153.02h10.01c7.61,0,12.36,4.92,12.36,11.36s-4.75,11.36-12.36,11.36h-7.1v16.45h-2.91v-39.17ZM479.65,173.05c5.48,0,9.29-3.53,9.29-8.67s-3.8-8.67-9.29-8.67h-7.16v17.35h7.16Z"/>
  </g>
  <g>
    <path class="cls-1" d="M499.86.58c0,.1,0,.19-.02.26s-.03.13-.05.17c-.03.05-.05.08-.09.1s-.07.03-.11.03h-2.85v8.78s-.01.08-.03.11-.06.06-.11.07c-.05.02-.12.03-.21.05-.09.01-.2.02-.33.02s-.23,0-.32-.02-.16-.03-.21-.05c-.05-.02-.09-.04-.11-.07s-.03-.07-.03-.11V1.14h-2.85s-.08-.01-.11-.03c-.04-.02-.06-.05-.08-.1-.02-.04-.04-.1-.05-.17s-.02-.16-.02-.26,0-.19.02-.26.03-.14.05-.19.05-.08.08-.1c.03-.02.07-.03.11-.03h7.04s.08.01.11.03.06.05.09.1c.02.05.04.11.05.19s.02.16.02.26Z"/>
    <path class="cls-1" d="M513.14,9.92s-.01.08-.03.11c-.02.03-.06.06-.11.07-.05.02-.12.03-.2.05-.08.01-.19.02-.33.02-.12,0-.23,0-.32-.02s-.16-.03-.21-.05c-.05-.02-.09-.04-.11-.07-.02-.03-.03-.07-.03-.11V1.1h-.02l-3.57,8.86s-.04.07-.07.09c-.03.03-.07.05-.13.07-.06.02-.12.03-.2.04-.08,0-.16.01-.27.01-.11,0-.2,0-.28-.02s-.14-.03-.2-.04c-.05-.02-.09-.04-.12-.07-.03-.03-.05-.05-.06-.09l-3.41-8.86h0v8.82s-.01.08-.03.11c-.02.03-.06.06-.11.07-.05.02-.12.03-.21.05s-.2.02-.33.02c-.13,0-.23,0-.32-.02s-.15-.03-.21-.05c-.05-.02-.09-.04-.1-.07s-.03-.07-.03-.11V.61c0-.22.06-.38.17-.47s.25-.14.39-.14h.83c.17,0,.32.02.45.05.13.03.24.08.33.15.09.07.17.15.24.26s.12.23.17.37l2.9,7.33h.04l3.01-7.31c.06-.16.12-.29.19-.4.07-.11.15-.2.23-.26.08-.06.17-.11.27-.14.1-.03.22-.04.35-.04h.87c.08,0,.16.01.23.04.07.02.13.06.18.11.05.05.09.11.13.19s.05.17.05.28v9.31Z"/>
  </g>
</svg>